[in#0 @ 000002695be426c0] Capturing whole desktop as 1140x940x32 at (80,80)
[in#0/gdigrab @ 000002695be426c0] Stream #0: not enough frames to estimate rate; consider increasing probesize
Input #0, gdigrab, from 'desktop':
  Duration: N/A, start: 1783804014.549862, bitrate: 1028748 kb/s
  Stream #0:0: Video: bmp, bgra, 1140x940, 1028748 kb/s, 30 fps, 1000k tbr, 1000k tbn, start 1783804014.549862
Stream mapping:
  Stream #0:0 -> #0:0 (bmp (native) -> h264 (libx264))
Press [q] to stop, [?] for help
[libx264 @ 000002695bedcb40] using cpu capabilities: MMX2 SSE2Fast SSSE3 SSE4.2 AVX FMA3 BMI2 AVX2 AVX512
[libx264 @ 000002695bedcb40] profile High, level 3.2, 4:2:0, 8-bit
[libx264 @ 000002695bedcb40] 264 - core 165 r3223 0480cb0 - H.264/MPEG-4 AVC codec - Copyleft 2003-2025 - http://www.videolan.org/x264.html - options: cabac=1 ref=1 deblock=1:0:0 analyse=0x3:0x113 me=hex subme=2 psy=1 psy_rd=1.00:0.00 mixed_ref=0 me_range=16 chroma_me=1 trellis=0 8x8dct=1 cqm=0 deadzone=21,11 fast_pskip=1 chroma_qp_offset=0 threads=18 lookahead_threads=6 sliced_threads=0 nr=0 decimate=1 interlaced=0 bluray_compat=0 constrained_intra=0 bframes=3 b_pyramid=2 b_adapt=1 b_bias=0 direct=1 weightb=1 open_gop=0 weightp=1 keyint=250 keyint_min=25 scenecut=40 intra_refresh=0 rc_lookahead=10 rc=crf mbtree=1 crf=18.0 qcomp=0.60 qpmin=0 qpmax=69 qpstep=4 ip_ratio=1.40 aq=1:1.00
Output #0, matroska, to 'E:\Programming\voxel-nexus\docs\evidence\milestone-completion\issue-30-final\lifecycle\milestone-proof.mkv':
  Metadata:
    encoder         : Lavf62.12.102
  Stream #0:0: Video: h264 (H264 / 0x34363248), yuv420p(tv, progressive), 1140x940, q=2-31, 30 fps, 1k tbn
    Metadata:
      encoder         : Lavc62.28.102 libx264
    Side data:
      CPB properties: bitrate max/min/avg: 0/0/0 buffer size: 0 vbv_delay: N/A
frame=    0 fps=0.0 q=0.0 size=       0KiB time=N/A bitrate=N/A speed=N/A elapsed=0:00:00.50    frame=    0 fps=0.0 q=0.0 size=       0KiB time=N/A bitrate=N/A speed=N/A elapsed=0:00:01.03    frame=   16 fps= 10 q=24.0 size=       1KiB time=00:00:00.43 bitrate=  11.0kbits/s speed=0.281x elapsed=0:00:01.54    frame=   31 fps= 15 q=24.0 size=       1KiB time=00:00:00.93 bitrate=   5.1kbits/s speed=0.454x elapsed=0:00:02.05    frame=   46 fps= 18 q=24.0 size=       1KiB time=00:00:01.43 bitrate=   3.3kbits/s speed=0.557x elapsed=0:00:02.57    frame=   62 fps= 20 q=24.0 size=       1KiB time=00:00:01.96 bitrate=   2.4kbits/s speed=0.635x elapsed=0:00:03.09    frame=   77 fps= 21 q=24.0 size=       1KiB time=00:00:02.46 bitrate=   1.9kbits/s speed=0.684x elapsed=0:00:03.60    frame=   93 fps= 23 q=24.0 size=       1KiB time=00:00:03.00 bitrate=   1.6kbits/s speed=0.729x elapsed=0:00:04.11    frame=  108 fps= 23 q=24.0 size=       1KiB time=00:00:03.50 bitrate=   1.4kbits/s speed=0.756x elapsed=0:00:04.63    frame=  124 fps= 24 q=24.0 size=       1KiB time=00:00:04.03 bitrate=   1.2kbits/s speed=0.782x elapsed=0:00:05.15    frame=  139 fps= 25 q=24.0 size=       1KiB time=00:00:04.53 bitrate=   1.0kbits/s speed=0.799x elapsed=0:00:05.67    frame=  155 fps= 25 q=24.0 size=     103KiB time=00:00:05.06 bitrate= 166.5kbits/s speed=0.82x elapsed=0:00:06.18    frame=  170 fps= 25 q=24.0 size=     103KiB time=00:00:05.56 bitrate= 151.5kbits/s speed=0.83x elapsed=0:00:06.70    frame=  186 fps= 26 q=24.0 size=     103KiB time=00:00:06.10 bitrate= 138.3kbits/s speed=0.845x elapsed=0:00:07.21    frame=  201 fps= 26 q=24.0 size=     103KiB time=00:00:06.60 bitrate= 127.8kbits/s speed=0.854x elapsed=0:00:07.72    frame=  217 fps= 26 q=24.0 size=     103KiB time=00:00:07.13 bitrate= 118.2kbits/s speed=0.866x elapsed=0:00:08.24    frame=  232 fps= 26 q=24.0 size=     103KiB time=00:00:07.63 bitrate= 110.5kbits/s speed=0.871x elapsed=0:00:08.76    frame=  248 fps= 27 q=24.0 size=     103KiB time=00:00:08.16 bitrate= 103.3kbits/s speed=0.88x elapsed=0:00:09.28    frame=  263 fps= 27 q=24.0 size=     127KiB time=00:00:08.66 bitrate= 119.7kbits/s speed=0.885x elapsed=0:00:09.79    frame=  279 fps= 27 q=24.0 size=     127KiB time=00:00:09.20 bitrate= 112.7kbits/s speed=0.892x elapsed=0:00:10.31    frame=  294 fps= 27 q=24.0 size=     127KiB time=00:00:09.70 bitrate= 106.9kbits/s speed=0.896x elapsed=0:00:10.82    frame=  309 fps= 27 q=24.0 size=     127KiB time=00:00:10.20 bitrate= 101.7kbits/s speed= 0.9x elapsed=0:00:11.33    frame=  325 fps= 27 q=24.0 size=     127KiB time=00:00:10.73 bitrate=  96.6kbits/s speed=0.905x elapsed=0:00:11.86    frame=  340 fps= 27 q=24.0 size=     127KiB time=00:00:11.23 bitrate=  92.3kbits/s speed=0.908x elapsed=0:00:12.37    frame=  356 fps= 28 q=24.0 size=     127KiB time=00:00:11.76 bitrate=  88.1kbits/s speed=0.913x elapsed=0:00:12.88    frame=  371 fps= 28 q=24.0 size=     127KiB time=00:00:12.26 bitrate=  84.5kbits/s speed=0.916x elapsed=0:00:13.39    frame=  387 fps= 28 q=24.0 size=     127KiB time=00:00:12.80 bitrate=  81.0kbits/s speed=0.919x elapsed=0:00:13.92    frame=  402 fps= 28 q=24.0 size=     173KiB time=00:00:13.30 bitrate= 106.6kbits/s speed=0.921x elapsed=0:00:14.43    frame=  418 fps= 28 q=24.0 size=     173KiB time=00:00:13.83 bitrate= 102.5kbits/s speed=0.925x elapsed=0:00:14.95    frame=  433 fps= 28 q=24.0 size=     173KiB time=00:00:14.33 bitrate=  98.9kbits/s speed=0.927x elapsed=0:00:15.46    frame=  449 fps= 28 q=24.0 size=     173KiB time=00:00:14.86 bitrate=  95.4kbits/s speed=0.93x elapsed=0:00:15.98    frame=  464 fps= 28 q=24.0 size=     173KiB time=00:00:15.36 bitrate=  92.3kbits/s speed=0.931x elapsed=0:00:16.49    frame=  480 fps= 28 q=24.0 size=     173KiB time=00:00:15.90 bitrate=  89.2kbits/s speed=0.935x elapsed=0:00:17.00    frame=  495 fps= 28 q=24.0 size=     173KiB time=00:00:16.40 bitrate=  86.5kbits/s speed=0.936x elapsed=0:00:17.52    frame=  511 fps= 28 q=24.0 size=     186KiB time=00:00:16.93 bitrate=  90.2kbits/s speed=0.938x elapsed=0:00:18.04    frame=  526 fps= 28 q=24.0 size=     186KiB time=00:00:17.43 bitrate=  87.6kbits/s speed=0.94x elapsed=0:00:18.55    frame=  542 fps= 28 q=24.0 size=     186KiB time=00:00:17.96 bitrate=  85.0kbits/s speed=0.942x elapsed=0:00:19.07    frame=  557 fps= 28 q=24.0 size=     186KiB time=00:00:18.46 bitrate=  82.7kbits/s speed=0.943x elapsed=0:00:19.59    frame=  572 fps= 28 q=24.0 size=     186KiB time=00:00:18.96 bitrate=  80.5kbits/s speed=0.944x elapsed=0:00:20.09    frame=  588 fps= 29 q=24.0 size=     186KiB time=00:00:19.50 bitrate=  78.3kbits/s speed=0.945x elapsed=0:00:20.62    frame=  604 fps= 29 q=24.0 size=     186KiB time=00:00:20.03 bitrate=  76.2kbits/s speed=0.948x elapsed=0:00:21.14    frame=  619 fps= 29 q=24.0 size=     186KiB time=00:00:20.53 bitrate=  74.4kbits/s speed=0.948x elapsed=0:00:21.65    frame=  635 fps= 29 q=24.0 size=     186KiB time=00:00:21.06 bitrate=  72.5kbits/s speed=0.95x elapsed=0:00:22.17    frame=  650 fps= 29 q=24.0 size=     186KiB time=00:00:21.56 bitrate=  70.8kbits/s speed=0.95x elapsed=0:00:22.70    frame=  666 fps= 29 q=24.0 size=     231KiB time=00:00:22.10 bitrate=  85.6kbits/s speed=0.952x elapsed=0:00:23.21    frame=  681 fps= 29 q=21.0 size=     231KiB time=00:00:22.60 bitrate=  83.7kbits/s speed=0.952x elapsed=0:00:23.72    frame=  697 fps= 29 q=24.0 size=     231KiB time=00:00:23.13 bitrate=  81.8kbits/s speed=0.954x elapsed=0:00:24.24    frame=  712 fps= 29 q=24.0 size=     238KiB time=00:00:23.63 bitrate=  82.4kbits/s speed=0.954x elapsed=0:00:24.76    frame=  727 fps= 29 q=24.0 size=     238KiB time=00:00:24.13 bitrate=  80.7kbits/s dup=0 drop=1 speed=0.954x elapsed=0:00:25.28    frame=  742 fps= 29 q=24.0 size=     238KiB time=00:00:24.63 bitrate=  79.1kbits/s dup=0 drop=1 speed=0.955x elapsed=0:00:25.79    frame=  757 fps= 29 q=24.0 size=     238KiB time=00:00:25.16 bitrate=  77.4kbits/s dup=0 drop=1 speed=0.957x elapsed=0:00:26.30    frame=  773 fps= 29 q=24.0 size=     238KiB time=00:00:25.70 bitrate=  75.8kbits/s dup=0 drop=1 speed=0.958x elapsed=0:00:26.83    frame=  789 fps= 29 q=24.0 size=     238KiB time=00:00:26.23 bitrate=  74.3kbits/s dup=0 drop=1 speed=0.959x elapsed=0:00:27.34    frame=  804 fps= 29 q=24.0 size=     238KiB time=00:00:26.73 bitrate=  72.9kbits/s dup=0 drop=1 speed=0.96x elapsed=0:00:27.85    frame=  820 fps= 29 q=24.0 size=     238KiB time=00:00:27.26 bitrate=  71.4kbits/s dup=0 drop=1 speed=0.961x elapsed=0:00:28.37    frame=  835 fps= 29 q=24.0 size=     238KiB time=00:00:27.76 bitrate=  70.2kbits/s dup=0 drop=1 speed=0.961x elapsed=0:00:28.88    frame=  850 fps= 29 q=24.0 size=     256KiB time=00:00:28.26 bitrate=  74.2kbits/s dup=0 drop=1 speed=0.961x elapsed=0:00:29.40    frame=  866 fps= 29 q=24.0 size=     256KiB time=00:00:28.80 bitrate=  72.8kbits/s dup=0 drop=1 speed=0.963x elapsed=0:00:29.91    frame=  880 fps= 29 q=24.0 size=     256KiB time=00:00:29.26 bitrate=  71.7kbits/s dup=0 drop=2 speed=0.961x elapsed=0:00:30.43    frame=  896 fps= 29 q=24.0 size=     256KiB time=00:00:29.80 bitrate=  70.4kbits/s dup=0 drop=2 speed=0.963x elapsed=0:00:30.94    frame=  911 fps= 29 q=24.0 size=     256KiB time=00:00:30.33 bitrate=  69.1kbits/s dup=0 drop=2 speed=0.964x elapsed=0:00:31.45    frame=  927 fps= 29 q=24.0 size=     256KiB time=00:00:30.86 bitrate=  67.9kbits/s dup=0 drop=2 speed=0.965x elapsed=0:00:31.98    frame=  942 fps= 29 q=24.0 size=     256KiB time=00:00:31.36 bitrate=  66.9kbits/s dup=0 drop=2 speed=0.965x elapsed=0:00:32.49    frame=  958 fps= 29 q=24.0 size=     256KiB time=00:00:31.90 bitrate=  65.7kbits/s dup=0 drop=2 speed=0.966x elapsed=0:00:33.00    frame=  973 fps= 29 q=24.0 size=     256KiB time=00:00:32.40 bitrate=  64.7kbits/s dup=0 drop=2 speed=0.966x elapsed=0:00:33.53    frame=  989 fps= 29 q=24.0 size=     256KiB time=00:00:32.93 bitrate=  63.7kbits/s dup=0 drop=2 speed=0.967x elapsed=0:00:34.04    frame= 1004 fps= 29 q=24.0 size=     256KiB time=00:00:33.43 bitrate=  62.7kbits/s dup=0 drop=2 speed=0.967x elapsed=0:00:34.55    frame= 1019 fps= 29 q=24.0 size=     256KiB time=00:00:33.93 bitrate=  61.8kbits/s dup=0 drop=2 speed=0.968x elapsed=0:00:35.07    

[q] command received. Exiting.

[out#0/matroska @ 000002695be63680] video:554KiB audio:0KiB subtitle:0KiB other streams:0KiB global headers:0KiB muxing overhead: 1.321296%
frame= 1067 fps= 30 q=-1.0 Lsize=     561KiB time=00:00:35.53 bitrate= 129.4kbits/s dup=0 drop=2 speed=0.998x elapsed=0:00:35.61    
[libx264 @ 000002695bedcb40] frame I:6     Avg QP: 6.80  size: 23630
[libx264 @ 000002695bedcb40] frame P:279   Avg QP:12.88  size:  1241
[libx264 @ 000002695bedcb40] frame B:782   Avg QP:19.37  size:   101
[libx264 @ 000002695bedcb40] consecutive B-frames:  1.8%  1.1%  1.1% 96.0%
[libx264 @ 000002695bedcb40] mb I  I16..4: 86.8%  4.6%  8.6%
[libx264 @ 000002695bedcb40] mb P  I16..4:  4.4%  0.3%  0.3%  P16..4:  0.5%  0.1%  0.1%  0.0%  0.0%    skip:94.3%
[libx264 @ 000002695bedcb40] mb B  I16..4:  0.1%  0.0%  0.0%  B16..8:  0.3%  0.1%  0.0%  direct: 0.1%  skip:99.5%  L0:48.6% L1:49.6% BI: 1.8%
[libx264 @ 000002695bedcb40] 8x8 transform intra:4.8% inter:14.4%
[libx264 @ 000002695bedcb40] coded y,uvDC,uvAC intra: 9.0% 13.8% 10.1% inter: 0.1% 0.2% 0.0%
[libx264 @ 000002695bedcb40] i16 v,h,dc,p: 77% 22%  0%  0%
[libx264 @ 000002695bedcb40] i8 v,h,dc,ddl,ddr,vr,hd,vl,hu: 19% 35% 39%  2%  0%  0%  1%  1%  2%
[libx264 @ 000002695bedcb40] i4 v,h,dc,ddl,ddr,vr,hd,vl,hu: 29% 25% 27%  2%  2%  2%  5%  2%  5%
[libx264 @ 000002695bedcb40] i8c dc,h,v,p: 67% 23%  9%  1%
[libx264 @ 000002695bedcb40] Weighted P-Frames: Y:0.4% UV:0.4%
[libx264 @ 000002695bedcb40] kb/s:127.20
